<svg id="Layer_1" data-name="Layer 1" xmlns="http://www.w3.org/2000/svg" viewBox="0 0 25 25"><defs><style>.cls-1{fill:#494d56;}.cls-2{fill:#fff;fill-rule:evenodd;}</style></defs><path class="cls-1" d="M24.34,12.64A11.83,11.83,0,1,1,12.51.8,11.83,11.83,0,0,1,24.34,12.64Z"/><path class="cls-2" d="M17.22,6.25H7.81A1.52,1.52,0,0,0,6.11,8v9.39A1.5,1.5,0,0,0,7.76,19h9.46a1.52,1.52,0,0,0,1.69-1.69V7.92A1.51,1.51,0,0,0,17.22,6.25Zm-1,1.44c1.27,0,1.27,0,1.27,1.27s0,1.24-1.25,1.24S15,10.2,15,8.94,15,7.69,16.18,7.69Zm-3.66,2.47A2.48,2.48,0,1,1,10,12.61,2.5,2.5,0,0,1,12.52,10.16Zm4.93,6.65c0,.59-.17.76-.76.76H8.33c-.59,0-.75-.17-.75-.76,0-1.54,0-3.1,0-4.66,0-.44.12-.54.53-.52.58,0,.59,0,.53.58a3.94,3.94,0,0,0,3.08,4.28,4,4,0,0,0,4.57-2.74,4.1,4.1,0,0,0,.09-1.84c-.05-.22,0-.26.21-.26.88-.07.88-.09.88.83Z"/></svg>