<svg id="Layer_1" data-name="Layer 1" xmlns="http://www.w3.org/2000/svg" viewBox="0 0 1080 1080"><defs><style>.cls-1{fill:#5c5b5b;stroke:#231f20;}.cls-1,.cls-2,.cls-3{stroke-miterlimit:10;}.cls-2{fill:#71cac7;stroke-width:5px;}.cls-2,.cls-3{stroke:#a2d1c9;}.cls-3{fill:#f5c065;stroke-width:4px;}</style></defs><circle class="cls-1" cx="540" cy="549.48" r="468.46"/><path class="cls-2" d="M732.32,271.66c-23.77.27-52.89,6.74-59.59,35.43a47.71,47.71,0,0,0,17.69,48.43,246.69,246.69,0,0,1,97.08,195c.72,135-108.62,246.55-243.59,248.43-138.09,1.92-250.64-109.44-250.64-247.09a246.72,246.72,0,0,1,94.94-194.72,48.16,48.16,0,0,0,18.35-40.27c-1.79-35.62-32.16-44.27-57.83-45.16a52.66,52.66,0,0,0-36,12.82A348.1,348.1,0,0,0,191.08,551.21c1,192.2,156.73,347,348.93,347,192.7,0,348.92-156.22,348.92-348.93A348.13,348.13,0,0,0,767,284.31,52.48,52.48,0,0,0,732.32,271.66Z"/><path class="cls-3" d="M491.85,582.32h0V565.14c7.25-3.91,12.51-15.64,12.51-29.5s-5.26-25.59-12.51-29.5V231.63c0-27.52,21-49.83,46.91-49.83h0c26.21,0,47.46,22.57,47.46,50.42V482.06C586.22,537.43,544,582.32,491.85,582.32Z"/><path class="cls-3" d="M450.62,535.64c0,13.75,5.18,25.38,12.33,29.39v17.29h0c-52.11,0-94.36-44.89-94.36-100.26H463v24.19C455.8,510.26,450.62,521.89,450.62,535.64Z"/></svg>