<svg id="Layer_1" data-name="Layer 1" xmlns="http://www.w3.org/2000/svg" viewBox="0 0 25 25"><defs><style>.cls-1{fill:#494d56;}.cls-2{fill:#fff;fill-rule:evenodd;}</style></defs><path class="cls-1" d="M24.4,12.51A11.9,11.9,0,1,1,12.5.59,11.91,11.91,0,0,1,24.4,12.51Z"/><path class="cls-2" d="M5.3,17.35a6.75,6.75,0,0,0,3.26-.57A5.89,5.89,0,0,0,9.87,16a3.21,3.21,0,0,1-1.36-.34A3,3,0,0,1,7,14c-.07-.17-.07-.17.12-.16a2.56,2.56,0,0,0,1.15-.07,3.36,3.36,0,0,1-.74-.29,3.11,3.11,0,0,1-1.69-2.67c0-.14,0-.15.15-.09a3.25,3.25,0,0,0,1.23.34c-.2-.19-.37-.33-.53-.49A3.18,3.18,0,0,1,6.22,7c.07-.15.1-.15.21,0a8.82,8.82,0,0,0,5.46,3c.22.05.46.05.69.09s.17,0,.15-.17A3.13,3.13,0,0,1,18,7.15a.31.31,0,0,0,.34.08A5.77,5.77,0,0,0,20,6.59a.51.51,0,0,0,.13-.08,3.09,3.09,0,0,1-1.32,1.72,6.37,6.37,0,0,0,1.69-.44c0,.08,0,.12-.08.18a6.55,6.55,0,0,1-1.3,1.33.26.26,0,0,0-.12.25,9,9,0,0,1-2.16,6.11,8.47,8.47,0,0,1-5.22,2.94,9,9,0,0,1-6.23-1.22Z"/></svg>