<svg id="Layer_1" data-name="Layer 1" xmlns="http://www.w3.org/2000/svg" viewBox="0 0 25 25"><defs><style>.cls-1{fill:#494d56;}.cls-2{fill:#fff;fill-rule:evenodd;}</style></defs><path class="cls-1" d="M24.47,12.44a12,12,0,1,1-12-12A12,12,0,0,1,24.47,12.44Z"/><path class="cls-2" d="M19.58,10.72a7.3,7.3,0,0,0-7.12-5.64,9.35,9.35,0,0,0-1.4.14,7.29,7.29,0,0,0-5,10.64.46.46,0,0,1,.06.36c-.34,1.12-.65,2.26-1,3.39,0,.2,0,.2.13.15,1.19-.32,2.36-.62,3.54-.92a.29.29,0,0,1,.26,0,7.44,7.44,0,0,0,4.8.68A7.32,7.32,0,0,0,19.58,10.72Zm-6.09,7.64a2.75,2.75,0,0,1-.84.07,6.33,6.33,0,0,1-3.3-.84A.39.39,0,0,0,9,17.53c-.66.16-1.3.34-2,.51-.13,0-.15,0-.12-.13.18-.6.34-1.21.53-1.84a.45.45,0,0,0-.08-.43,6,6,0,0,1,.22-6.8,5.77,5.77,0,0,1,6.17-2.38,5.71,5.71,0,0,1,4.64,4.6A6,6,0,0,1,13.49,18.36Z"/><path class="cls-2" d="M14.37,15.86a2,2,0,0,1-.76-.1,7.42,7.42,0,0,1-3.95-2.9,4.13,4.13,0,0,1-.84-1.72,2,2,0,0,1,.65-2,1.14,1.14,0,0,1,1-.15.78.78,0,0,1,.16.2c.21.52.43,1,.64,1.49a.42.42,0,0,1,0,.31,3.36,3.36,0,0,1-.45.6.28.28,0,0,0,0,.4,4.9,4.9,0,0,0,2.5,2.14.28.28,0,0,0,.37-.08c.19-.22.37-.46.55-.68a.31.31,0,0,1,.4-.11l1.05.49a1.28,1.28,0,0,0,.25.11c.36.19.36.21.32.6a1.52,1.52,0,0,1-1.3,1.33A1.37,1.37,0,0,1,14.37,15.86Z"/></svg>